<?xml version="1.0" encoding="UTF-8"?><svg id="Camada_1" xmlns="http://www.w3.org/2000/svg" viewBox="0 0 98 48"><path d="M39.43,47.47h-13.26v-8.47c-5.27.26-9.51-1.66-12.84-5.79v14.25H0V.26h13.29v11.19c5.27-.22,9.51,1.7,12.83,5.83V.25h13.3v47.22ZM28.96,35.53c.11-.03.16-.04.22-.06,4.25-1.5,7.49-6.03,7.49-10.51,0-7.17,0-14.34,0-21.5,0-.16-.02-.32-.02-.48h-7.69v32.55ZM26.15,36.19c0-.23,0-.41,0-.59,0-3.22.03-6.44-.02-9.66-.02-1.05-.15-2.12-.42-3.13-1.19-4.55-5.03-7.89-9.75-8.5-.86-.11-1.75-.02-2.64-.02,0,.15-.02.27-.02.38,0,3.46-.02,6.92.01,10.38,0,.69.1,1.39.26,2.06,1.21,4.83,4.29,7.8,9.16,8.93,1.1.26,2.23.3,3.41.14ZM10.48,44.76V14.92c-.13.04-.23.06-.33.1-4.25,1.58-7.38,6.02-7.38,10.53,0,6.23,0,12.46-.01,18.68,0,.45.15.55.57.54,2.21-.02,4.42,0,6.63,0,.16,0,.33,0,.52,0ZM2.81,2.96v14.22c.07-.05.1-.06.12-.08,1.89-2.43,4.3-4.12,7.26-5.03.29-.09.32-.25.32-.5,0-2.74,0-5.47,0-8.21,0-.13-.02-.26-.03-.4H2.81ZM36.65,33.3s-.07-.05-.11-.08c-.04.08-.07.16-.12.23-1.87,2.36-4.24,4-7.13,4.91-.29.09-.36.24-.36.52.01,1.8.02,3.6,0,5.39,0,.42.14.5.52.49,2.25-.03,4.51-.03,6.76-.04.14,0,.29-.01.43-.02v-11.4Z" fill="#e07a5f" stroke-width="0"/><path d="M56.63,26.77v-11.73h-5.82v11.73h-1.99v-11.73h-1.27v-1.97h1.27v-4.18h1.99v4.18h5.82v-4.18h1.99v17.89h-1.99Z" fill="#e07a5f" stroke-width="0"/><path d="M74.92,24.15c-1.76,1.75-3.88,2.62-6.36,2.62s-4.6-.87-6.36-2.62c-1.76-1.75-2.65-3.86-2.65-6.33s.88-4.56,2.65-6.31,3.88-2.62,6.36-2.62,4.59.88,6.36,2.62c1.76,1.75,2.65,3.85,2.65,6.31s-.88,4.58-2.65,6.33ZM73.54,12.9c-1.37-1.36-3.03-2.04-4.98-2.04s-3.59.68-4.97,2.04c-1.38,1.36-2.07,3-2.07,4.92s.69,3.56,2.07,4.93c1.38,1.37,3.04,2.05,4.97,2.05s3.61-.68,4.98-2.05c1.37-1.37,2.06-3.01,2.06-4.93s-.69-3.55-2.06-4.92Z" fill="#e07a5f" stroke-width="0"/><path d="M84.8,20.38c-1.23,1.33-2.75,2.06-4.55,2.19v4.2h-1.99V8.88h1.49c1.9,0,3.52.67,4.87,2.01,1.35,1.34,2.02,2.95,2.02,4.83,0,1.77-.61,3.33-1.84,4.66ZM83.41,12.45c-.85-.93-1.9-1.46-3.16-1.57v9.71c1.25-.13,2.3-.66,3.15-1.59.85-.93,1.28-2.03,1.28-3.28s-.42-2.34-1.27-3.28Z" fill="#e07a5f" stroke-width="0"/><path d="M91.08,24.1c-1.75-1.75-2.62-3.84-2.62-6.28v-2.78h-1.15v-1.97h1.15v-4.18h8.77v1.97h-6.78v2.21h6.9v1.97h-6.9v2.78c0,1.9.67,3.53,2.01,4.89,1.34,1.36,2.98,2.06,4.91,2.09v2c-2.44-.05-4.54-.95-6.29-2.7Z" fill="#e07a5f" stroke-width="0"/><path d="M55.43,34.66s-.02.08-.06.11c-.04.04-.09.06-.14.06-.07,0-.19-.02-.38-.07-.67,1.44-1.44,2.69-2.3,3.75-.86,1.05-1.71,1.58-2.54,1.58-.53,0-.95-.13-1.25-.4s-.45-.69-.45-1.26c0-1.35.88-3.43,2.64-6.24.21-.25.46-.38.77-.38.18,0,.32.04.43.13.11.08.14.17.09.27-.88,1.64-1.51,2.99-1.89,4.05-.38,1.06-.57,1.87-.57,2.42,0,.32.05.55.16.7.1.15.23.23.37.23.37,0,.81-.24,1.32-.72.51-.48,1.03-1.11,1.55-1.87.52-.76.97-1.54,1.35-2.34-.36-.12-.62-.29-.79-.51-.17-.22-.25-.46-.25-.72,0-.34.12-.64.36-.91.24-.27.52-.41.83-.41.1,0,.18,0,.23.03.38.1.57.36.57.76,0,.27-.1.65-.3,1.14-.04.1-.1.26-.2.46.14.04.26.06.37.07.06,0,.09.03.09.1ZM54.1,32.68c-.16.19-.24.41-.24.67,0,.2.06.39.19.57.13.18.33.34.6.46l.16-.35c.22-.51.33-.89.33-1.15,0-.32-.16-.48-.47-.48-.22,0-.41.1-.57.29Z" fill="#e07a5f" stroke-width="0"/><path d="M54.61,38.98c0-.58.28-1.38.84-2.4.56-1.02,1.37-2.27,2.43-3.75.12-.19.29-.28.5-.28.11,0,.21.03.3.08.09.06.13.12.13.2,0,.04-.01.08-.04.13-.99,1.67-1.73,2.99-2.21,3.97-.48.98-.72,1.68-.72,2.12,0,.37.18.56.55.56s.85-.31,1.46-.92c.61-.61,1.2-1.34,1.74-2.19.04-.07.08-.1.13-.1s.08.02.1.06c.02.04.01.08-.01.13-.68,1.05-1.33,1.9-1.94,2.55-.61.65-1.22.97-1.82.97-.95,0-1.43-.37-1.43-1.11ZM58.75,31.68c-.13-.14-.2-.31-.2-.53,0-.29.11-.55.33-.77.22-.22.48-.33.76-.33.22,0,.39.07.52.2.13.14.2.31.2.53,0,.29-.11.55-.33.77s-.48.33-.76.33c-.22,0-.39-.07-.52-.2Z" fill="#e07a5f" stroke-width="0"/><path d="M67.98,36.39s.08.02.1.06c.02.04.01.08-.01.13-.68,1.05-1.33,1.9-1.94,2.55-.61.65-1.22.97-1.82.97-.93,0-1.39-.38-1.39-1.13,0-.3.07-.65.21-1.05-1.04,1.06-1.96,1.59-2.75,1.59-.46,0-.81-.11-1.03-.32-.22-.21-.33-.5-.33-.86,0-.69.32-1.56.97-2.59.65-1.03,1.41-1.93,2.29-2.69.88-.76,1.64-1.15,2.28-1.15.32,0,.55.11.68.32.13.21.2.45.2.72,0,.18-.01.3-.04.35-.03.07-.08.1-.14.1s-.09-.04-.09-.13c0-.03.01-.1.01-.23,0-.18-.04-.33-.12-.46-.08-.13-.23-.19-.45-.19-.43,0-.97.39-1.63,1.18-.66.79-1.25,1.68-1.77,2.68-.52,1-.77,1.75-.77,2.26,0,.34.13.51.38.51.32,0,.75-.25,1.28-.76.53-.51,1.12-1.17,1.77-1.98.59-1.08,1.5-2.47,2.74-4.19.12-.19.29-.28.5-.28.11,0,.21.03.3.08.09.06.13.12.13.2,0,.04-.01.08-.04.13-1.18,1.98-2.04,3.49-2.59,4.54-.54,1.05-.82,1.81-.82,2.3,0,.37.18.56.55.56s.85-.31,1.46-.92c.61-.61,1.2-1.34,1.74-2.19.04-.07.08-.1.13-.1Z" fill="#e07a5f" stroke-width="0"/><path d="M84.69,44.77c.15.13.22.29.22.46s-.07.33-.21.46c-.14.13-.34.2-.6.2-1.62,0-3.12-.11-4.5-.34-1.38-.22-2.58-.49-3.61-.8-1.03-.31-2.2-.71-3.52-1.2-1.08-.4-1.94-.7-2.6-.89-1.05,1.58-2.14,2.83-3.26,3.73-1.12.9-2.33,1.35-3.62,1.35-.63,0-1.17-.09-1.62-.28-.44-.19-.78-.44-1.01-.76-.23-.32-.34-.67-.34-1.07,0-.62.26-1.23.79-1.84.53-.6,1.31-1.11,2.35-1.5,1.04-.4,2.28-.6,3.73-.6.73,0,1.44.06,2.13.17.55-.87,1.31-2.17,2.28-3.9-.99,1.01-1.89,1.52-2.68,1.52-.46,0-.81-.11-1.03-.32-.22-.21-.33-.5-.33-.86,0-.69.32-1.56.97-2.59.65-1.03,1.41-1.93,2.29-2.69.88-.76,1.64-1.15,2.28-1.15.32,0,.55.11.68.32.13.21.2.45.2.72,0,.18-.01.3-.04.35-.03.07-.08.1-.14.1s-.09-.04-.09-.13c0-.03.01-.1.01-.23,0-.18-.04-.33-.12-.46-.08-.13-.23-.19-.45-.19-.43,0-.97.39-1.63,1.18-.66.79-1.25,1.68-1.77,2.68-.52,1-.77,1.75-.77,2.26,0,.34.13.51.38.51.36,0,.87-.33,1.52-.99.66-.66,1.35-1.49,2.08-2.48.84-1.48,1.57-2.63,2.2-3.45.04-.09.09-.15.16-.18.14-.14.3-.21.47-.21.09,0,.17.03.24.08.07.05.1.11.1.19,0,.04-.01.08-.04.13-.37.53-.75,1.16-1.14,1.88-.39.72-.88,1.64-1.47,2.76-.58,1.12-1.09,2.11-1.55,2.95-.46.84-.93,1.65-1.41,2.42.74.16,1.74.42,3.01.77,1.31.37,2.45.66,3.4.89.95.23,2.07.42,3.33.58,1.27.16,2.63.24,4.1.24.26,0,.46.07.6.2ZM65.83,45.97c.93-.86,1.89-2.05,2.89-3.58-.61-.13-1.21-.2-1.8-.2-1.17,0-2.18.19-3.03.56-.85.37-1.49.84-1.93,1.4-.44.56-.66,1.1-.66,1.64,0,.43.15.78.45,1.05.3.27.73.41,1.29.41.93,0,1.86-.43,2.79-1.29Z" fill="#e07a5f" stroke-width="0"/><path d="M81.23,32.2c.18.21.28.48.28.83,0,.53-.19,1.12-.58,1.76-.39.64-.92,1.18-1.59,1.62-.67.45-1.41.67-2.23.67-.12,0-.18-.03-.18-.1,0-.06.06-.08.17-.08.6,0,1.17-.24,1.72-.73.55-.49,1-1.06,1.35-1.72.35-.66.52-1.19.52-1.6,0-.14-.03-.25-.09-.34-.06-.08-.14-.13-.26-.13-.42,0-.94.36-1.56,1.08-.62.72-1.17,1.56-1.64,2.52-.47.96-.7,1.76-.7,2.41,0,.76.34,1.14,1.04,1.14.62,0,1.32-.31,2.08-.93.76-.62,1.43-1.32,2.01-2.11.04-.07.09-.1.14-.1.05,0,.08.02.09.06.01.04,0,.09-.04.13-.49.65-.96,1.21-1.41,1.69-.45.48-.97.89-1.56,1.23-.59.34-1.22.51-1.88.51-.72,0-1.25-.15-1.58-.44-.34-.29-.5-.69-.5-1.2,0-.76.32-1.66.97-2.69.65-1.04,1.42-1.93,2.3-2.68.89-.75,1.65-1.12,2.3-1.12.37,0,.65.1.83.31Z" fill="#e07a5f" stroke-width="0"/><path d="M90.03,36.39s.08.02.1.06c.02.04.01.08-.01.13-.68,1.05-1.33,1.9-1.94,2.55-.61.65-1.22.97-1.82.97-.93,0-1.39-.38-1.39-1.13,0-.68.38-1.69,1.13-3.01.53-.85.94-1.56,1.24-2.12s.45-.97.45-1.21c0-.16-.07-.24-.21-.24-.44,0-1.07.42-1.87,1.27-.8.84-1.57,1.82-2.3,2.92-.73,1.1-1.19,1.96-1.38,2.58,0,.24-.07.43-.21.57-.14.14-.31.2-.5.2-.17,0-.32-.05-.44-.16-.12-.11-.18-.26-.18-.46,0-.05,0-.12.03-.21.16-.99.52-2.03,1.06-3.12.55-1.09,1.37-2.39,2.45-3.9.12-.19.29-.28.5-.28.11,0,.21.03.3.08.09.06.13.12.13.2,0,.04-.01.08-.04.13-.88,1.47-1.55,2.67-2.02,3.59-.47.92-.78,1.73-.94,2.43.38-.81.92-1.71,1.62-2.71.7-1,1.43-1.85,2.18-2.56.76-.71,1.41-1.06,1.96-1.06.47,0,.71.26.71.77,0,.69-.41,1.78-1.23,3.26-.42.76-.73,1.39-.94,1.91-.21.51-.31.91-.31,1.2,0,.37.18.56.55.56s.85-.31,1.46-.92c.61-.61,1.2-1.34,1.74-2.19.04-.07.08-.1.13-.1Z" fill="#e07a5f" stroke-width="0"/><path d="M97.89,36.39s.08.02.1.06c.02.04.01.08-.01.13l-.24.38c-.39.62-.77,1.14-1.13,1.56-.37.42-.89.79-1.55,1.1-.67.31-1.5.47-2.49.47h-.07c-.5,0-.94-.14-1.3-.42-.37-.28-.55-.66-.55-1.13s.19-.95.58-1.46c.05-.07.1-.11.15-.1.05,0,.06.04.04.1-.28.5-.43.93-.43,1.29,0,.42.16.73.48.93.32.2.66.3,1.04.3.52,0,.93-.18,1.23-.53s.5-.75.61-1.17c.11-.42.16-.76.16-1.03,0-.5-.04-.91-.13-1.25-.09-.34-.22-.7-.38-1.08-.09-.22-.16-.41-.21-.54-.04-.14-.06-.27-.06-.41,0-.39.21-.77.64-1.14-.54.17-1.05.46-1.54.89-.49.42-.91.86-1.28,1.33-.37.46-.78,1.03-1.25,1.71l-.17.25c-.04.07-.08.1-.13.1s-.08-.02-.1-.06c-.02-.04-.01-.08.01-.13l.17-.27c.49-.76.97-1.44,1.45-2.05.47-.6,1.05-1.16,1.72-1.65.68-.5,1.38-.75,2.12-.75h0c.11,0,.21.02.28.06.08.04.11.1.11.18,0,.05-.02.09-.06.14-.09.1-.19.21-.33.32-.22.22-.38.4-.49.55-.11.15-.16.32-.16.51,0,.15.02.3.07.44.05.14.13.36.26.65.19.4.34.79.44,1.15.1.37.16.79.16,1.27,0,.4-.09.8-.26,1.2-.17.39-.41.74-.72,1.03.48-.16.9-.38,1.26-.65.36-.28.66-.56.89-.86.24-.3.55-.73.95-1.29.04-.07.08-.1.13-.1Z" fill="#e07a5f" stroke-width="0"/></svg>