<?xml version="1.0" encoding="UTF-8"?><svg id="Camada_1" xmlns="http://www.w3.org/2000/svg" viewBox="0 0 28 33"><path d="M26.8,31.95h-8.61v-5.54c-3.42.17-6.17-1.09-8.33-3.79v9.33H1.2V1.05h8.63v7.32c3.42-.15,6.17,1.11,8.33,3.82V1.05h8.63v30.91ZM20.01,24.14c.07-.02.11-.03.14-.04,2.76-.98,4.86-3.95,4.86-6.88,0-4.69,0-9.38,0-14.08,0-.1,0-.21-.02-.32h-4.99v21.31ZM18.18,24.57c0-.15,0-.27,0-.39,0-2.11.02-4.21-.01-6.32-.01-.69-.1-1.39-.27-2.05-.77-2.98-3.26-5.17-6.33-5.57-.56-.07-1.13-.01-1.71-.01,0,.1-.01.17-.01.25,0,2.27,0,4.53,0,6.8,0,.45.06.91.17,1.35.78,3.16,2.79,5.1,5.95,5.85.71.17,1.45.2,2.22.09ZM8,30.18V10.65c-.09.03-.15.04-.21.07-2.76,1.03-4.79,3.94-4.79,6.89,0,4.08,0,8.15,0,12.23,0,.3.09.36.37.36,1.43-.01,2.87,0,4.3,0,.11,0,.21,0,.34,0ZM3.03,2.82v9.31s.06-.04.08-.05c1.23-1.59,2.79-2.7,4.71-3.29.19-.06.21-.16.21-.33,0-1.79,0-3.58,0-5.37,0-.08-.01-.17-.02-.26H3.03ZM24.99,22.68s-.05-.03-.07-.05c-.03.05-.05.11-.08.15-1.21,1.55-2.75,2.62-4.63,3.21-.19.06-.23.16-.23.34,0,1.18.01,2.35,0,3.53,0,.27.09.33.34.32,1.46-.02,2.93-.02,4.39-.03.09,0,.19,0,.28-.01v-7.46Z" fill="#fafafa" stroke-width="0"/></svg>